<svg width="24" height="24" viewBox="0 0 24 24" fill="none" xmlns="http://www.w3.org/2000/svg">
<path fill-rule="evenodd" clip-rule="evenodd" d="M13.0996 3.9007H10.5996C9.60467 3.9007 8.91259 3.9014 8.37411 3.94539C7.84613 3.98853 7.54556 4.06876 7.31923 4.18408C6.83001 4.43335 6.43226 4.8311 6.18299 5.32032C6.06767 5.54665 5.98744 5.84722 5.94431 6.37519C5.90031 6.91368 5.89961 7.60575 5.89961 8.6007V15.4007C5.89961 16.3956 5.90031 17.0877 5.94431 17.6262C5.98744 18.1542 6.06767 18.4548 6.18299 18.6811C6.43226 19.1703 6.83001 19.568 7.31923 19.8173C7.54556 19.9326 7.84613 20.0129 8.37411 20.056C8.91259 20.1 9.60467 20.1007 10.5996 20.1007H14.3996C15.3946 20.1007 16.0866 20.1 16.6251 20.056C17.1531 20.0129 17.4537 19.9326 17.68 19.8173C18.1692 19.568 18.567 19.1703 18.8162 18.6811C18.9315 18.4548 19.0118 18.1542 19.0549 17.6262C19.0989 17.0877 19.0996 16.3956 19.0996 15.4007V9.9007H17.1996L17.1642 9.9007C16.6343 9.90071 16.1832 9.90073 15.8127 9.87046C15.4236 9.83866 15.045 9.76903 14.683 9.58462C14.1374 9.30658 13.6937 8.86294 13.4157 8.31727C13.2313 7.95534 13.1616 7.57674 13.1298 7.18758C13.0996 6.81715 13.0996 6.36597 13.0996 5.8361L13.0996 5.8007V3.9007ZM18.3268 8.1007L14.8996 4.67349V5.8007C14.8996 6.3756 14.9003 6.75265 14.9239 7.04101C14.9466 7.31885 14.9859 7.4342 15.0195 7.50009C15.125 7.70707 15.2932 7.87535 15.5002 7.98081C15.5661 8.01438 15.6815 8.05374 15.9593 8.07644C16.2477 8.1 16.6247 8.1007 17.1996 8.1007H18.3268ZM14.4386 2.16701C14.1591 2.09991 13.8723 2.10027 13.5727 2.10064L13.5055 2.1007H10.5996H10.5612C9.6137 2.10069 8.84795 2.10068 8.22753 2.15137C7.58824 2.2036 7.02442 2.31411 6.50205 2.58027C5.67414 3.00211 5.00102 3.67523 4.57918 4.50314C4.31302 5.02551 4.20252 5.58933 4.15028 6.22862C4.09959 6.84904 4.0996 7.61479 4.09961 8.56229V8.6007V15.4007V15.4391C4.0996 16.3866 4.09959 17.1524 4.15028 17.7728C4.20252 18.4121 4.31302 18.9759 4.57918 19.4983C5.00102 20.3262 5.67414 20.9993 6.50205 21.4211C7.02442 21.6873 7.58824 21.7978 8.22753 21.85C8.84795 21.9007 9.6137 21.9007 10.5612 21.9007H10.5996H14.3996H14.438C15.3855 21.9007 16.1513 21.9007 16.7717 21.85C17.411 21.7978 17.9748 21.6873 18.4972 21.4211C19.3251 20.9993 19.9982 20.3262 20.42 19.4983C20.6862 18.9759 20.7967 18.4121 20.8489 17.7728C20.8996 17.1524 20.8996 16.3866 20.8996 15.4391V15.4007V9.49481L20.8997 9.42761C20.9 9.12798 20.9004 8.84123 20.8333 8.56175C20.7745 8.31686 20.6775 8.08275 20.5459 7.86802C20.3958 7.62296 20.1928 7.42045 19.9806 7.20885L19.9331 7.16136L15.839 3.06725L15.7915 3.01969C15.5799 2.80756 15.3773 2.60454 15.1323 2.45436C14.9176 2.32277 14.6834 2.2258 14.4386 2.16701Z" fill="#556BF4"/>
</svg>
