<svg width="32" height="32" viewBox="0 0 32 32" fill="none" xmlns="http://www.w3.org/2000/svg">
<path d="M12 21.9165C11.5858 21.9165 11.25 22.2523 11.25 22.6665C11.25 23.0807 11.5858 23.4165 12 23.4165V21.9165ZM20 23.4165C20.4142 23.4165 20.75 23.0807 20.75 22.6665C20.75 22.2523 20.4142 21.9165 20 21.9165V23.4165ZM12 23.4165H20V21.9165H12V23.4165Z" fill="#868686"/>
<path d="M12 16.5835C11.5858 16.5835 11.25 16.9193 11.25 17.3335C11.25 17.7477 11.5858 18.0835 12 18.0835V16.5835ZM20 18.0835C20.4142 18.0835 20.75 17.7477 20.75 17.3335C20.75 16.9193 20.4142 16.5835 20 16.5835V18.0835ZM12 18.0835H20V16.5835H12V18.0835Z" fill="#868686"/>
<path d="M12 11.25C11.5858 11.25 11.25 11.5858 11.25 12C11.25 12.4142 11.5858 12.75 12 12.75V11.25ZM13.3333 12.75C13.7475 12.75 14.0833 12.4142 14.0833 12C14.0833 11.5858 13.7475 11.25 13.3333 11.25V12.75ZM12 12.75H13.3333V11.25H12V12.75Z" fill="#868686"/>
<path d="M24.5524 9.88562L23.8453 10.5927L24.5524 9.88562ZM19.4478 4.78105L20.1549 4.07394V4.07394L19.4478 4.78105ZM21.3334 27H10.6667V29H21.3334V27ZM7.66675 24V8H5.66675V24H7.66675ZM10.6667 5H17.5622V3H10.6667V5ZM24.3334 11.7712V24H26.3334V11.7712H24.3334ZM18.7407 5.48816L23.8453 10.5927L25.2595 9.17851L20.1549 4.07394L18.7407 5.48816ZM26.3334 11.7712C26.3334 10.7988 25.9471 9.86615 25.2595 9.17851L23.8453 10.5927C24.1578 10.9053 24.3334 11.3292 24.3334 11.7712H26.3334ZM17.5622 5C18.0042 5 18.4281 5.17559 18.7407 5.48816L20.1549 4.07394C19.4673 3.38631 18.5346 3 17.5622 3V5ZM10.6667 27C9.00989 27 7.66675 25.6569 7.66675 24H5.66675C5.66675 26.7614 7.90532 29 10.6667 29V27ZM21.3334 29C24.0948 29 26.3334 26.7614 26.3334 24H24.3334C24.3334 25.6569 22.9903 27 21.3334 27V29ZM7.66675 8C7.66675 6.34315 9.00989 5 10.6667 5V3C7.90532 3 5.66675 5.23858 5.66675 8H7.66675Z" fill="#868686"/>
<path d="M18.0833 6.66667V4H16.5833V6.66667H18.0833ZM25.3333 11.25H22.6666V12.75H25.3333V11.25ZM16.5833 6.66667C16.5833 10.0264 19.3069 12.75 22.6666 12.75V11.25C20.1353 11.25 18.0833 9.19797 18.0833 6.66667H16.5833Z" fill="#868686"/>
</svg>
