<svg width="24" height="24" viewBox="0 0 24 24" fill="none" xmlns="http://www.w3.org/2000/svg">
<path d="M9 16.25C8.58579 16.25 8.25 16.5858 8.25 17C8.25 17.4142 8.58579 17.75 9 17.75V16.25ZM15 17.75C15.4142 17.75 15.75 17.4142 15.75 17C15.75 16.5858 15.4142 16.25 15 16.25V17.75ZM9 17.75H15V16.25H9V17.75Z" fill="#AEAEAE"/>
<path d="M9 12.25C8.58579 12.25 8.25 12.5858 8.25 13C8.25 13.4142 8.58579 13.75 9 13.75V12.25ZM15 13.75C15.4142 13.75 15.75 13.4142 15.75 13C15.75 12.5858 15.4142 12.25 15 12.25V13.75ZM9 13.75H15V12.25H9V13.75Z" fill="#AEAEAE"/>
<path d="M9 8.25C8.58579 8.25 8.25 8.58579 8.25 9C8.25 9.41421 8.58579 9.75 9 9.75V8.25ZM10 9.75C10.4142 9.75 10.75 9.41421 10.75 9C10.75 8.58579 10.4142 8.25 10 8.25V9.75ZM9 9.75H10V8.25H9V9.75Z" fill="#AEAEAE"/>
<path d="M18.4142 7.41421L17.8839 7.94454L18.4142 7.41421ZM14.5858 3.58579L15.1161 3.05546V3.05546L14.5858 3.58579ZM16 20.25H8V21.75H16V20.25ZM5.75 18V6H4.25V18H5.75ZM8 3.75H13.1716V2.25H8V3.75ZM18.25 8.82843V18H19.75V8.82843H18.25ZM14.0555 4.11612L17.8839 7.94454L18.9445 6.88388L15.1161 3.05546L14.0555 4.11612ZM19.75 8.82843C19.75 8.09908 19.4603 7.39961 18.9445 6.88388L17.8839 7.94454C18.1183 8.17896 18.25 8.49691 18.25 8.82843H19.75ZM13.1716 3.75C13.5031 3.75 13.821 3.8817 14.0555 4.11612L15.1161 3.05546C14.6004 2.53973 13.9009 2.25 13.1716 2.25V3.75ZM8 20.25C6.75736 20.25 5.75 19.2426 5.75 18H4.25C4.25 20.0711 5.92893 21.75 8 21.75V20.25ZM16 21.75C18.0711 21.75 19.75 20.0711 19.75 18H18.25C18.25 19.2426 17.2426 20.25 16 20.25V21.75ZM5.75 6C5.75 4.75736 6.75736 3.75 8 3.75V2.25C5.92893 2.25 4.25 3.92893 4.25 6H5.75Z" fill="#AEAEAE"/>
<path d="M13.75 5V3H12.25V5H13.75ZM19 8.25H17V9.75H19V8.25ZM12.25 5C12.25 7.62335 14.3766 9.75 17 9.75V8.25C15.2051 8.25 13.75 6.79493 13.75 5H12.25Z" fill="#AEAEAE"/>
</svg>
