<svg width="52" height="52" viewBox="0 0 52 52" fill="none" xmlns="http://www.w3.org/2000/svg">
<rect x="2" y="2" width="48" height="48" rx="12" fill="#556BF4"/>
<path d="M14.9308 23.6172C14.8563 23.358 14.7515 23.1289 14.6166 22.93C14.4816 22.7276 14.3165 22.5572 14.1212 22.4187C13.9294 22.2766 13.7093 22.1683 13.4607 22.0938C13.2156 22.0192 12.944 21.9819 12.6457 21.9819C12.0882 21.9819 11.5981 22.1204 11.1755 22.3974C10.7565 22.6744 10.4298 23.0774 10.1954 23.6065C9.96103 24.1321 9.84384 24.7749 9.84384 25.5348C9.84384 26.2947 9.95925 26.9411 10.1901 27.4737C10.4209 28.0064 10.7476 28.413 11.1702 28.6935C11.5928 28.9705 12.0917 29.109 12.667 29.109C13.189 29.109 13.6347 29.0167 14.004 28.832C14.3769 28.6438 14.661 28.3793 14.8563 28.0384C15.0551 27.6974 15.1546 27.2944 15.1546 26.8292L15.6233 26.8984H12.8108V25.1619H17.3758V26.5362C17.3758 27.495 17.1734 28.3189 16.7686 29.0078C16.3637 29.6932 15.8062 30.2223 15.096 30.5952C14.3857 30.9645 13.5725 31.1491 12.6563 31.1491C11.6336 31.1491 10.7352 30.9237 9.96103 30.4727C9.18688 30.0181 8.58319 29.3736 8.14995 28.5391C7.72026 27.701 7.50542 26.7067 7.50542 25.5561C7.50542 24.6719 7.63326 23.8835 7.88894 23.1911C8.14817 22.495 8.51039 21.9055 8.97559 21.4226C9.44078 20.9396 9.98233 20.5721 10.6002 20.32C11.2181 20.0678 11.8875 19.9418 12.6084 19.9418C13.2263 19.9418 13.8016 20.0323 14.3343 20.2134C14.8669 20.391 15.3392 20.6431 15.7512 20.9698C16.1666 21.2965 16.5058 21.6854 16.7686 22.1364C17.0313 22.5838 17.2 23.0774 17.2746 23.6172H14.9308ZM21.3349 20.0909V31H19.0657V20.0909H21.3349ZM26.8493 31.1598C26.0219 31.1598 25.3064 30.984 24.7027 30.6325C24.1025 30.2773 23.6391 29.7837 23.3124 29.1516C22.9857 28.516 22.8224 27.7791 22.8224 26.9411C22.8224 26.0959 22.9857 25.3572 23.3124 24.7251C23.6391 24.0895 24.1025 23.5959 24.7027 23.2443C25.3064 22.8892 26.0219 22.7116 26.8493 22.7116C27.6768 22.7116 28.3905 22.8892 28.9907 23.2443C29.5944 23.5959 30.0596 24.0895 30.3863 24.7251C30.713 25.3572 30.8763 26.0959 30.8763 26.9411C30.8763 27.7791 30.713 28.516 30.3863 29.1516C30.0596 29.7837 29.5944 30.2773 28.9907 30.6325C28.3905 30.984 27.6768 31.1598 26.8493 31.1598ZM26.86 29.402C27.2364 29.402 27.5507 29.2955 27.8028 29.0824C28.055 28.8658 28.2449 28.571 28.3728 28.1982C28.5042 27.8253 28.5699 27.4009 28.5699 26.9251C28.5699 26.4492 28.5042 26.0249 28.3728 25.652C28.2449 25.2791 28.055 24.9844 27.8028 24.7678C27.5507 24.5511 27.2364 24.4428 26.86 24.4428C26.48 24.4428 26.1604 24.5511 25.9012 24.7678C25.6455 24.9844 25.452 25.2791 25.3206 25.652C25.1927 26.0249 25.1288 26.4492 25.1288 26.9251C25.1288 27.4009 25.1927 27.8253 25.3206 28.1982C25.452 28.571 25.6455 28.8658 25.9012 29.0824C26.1604 29.2955 26.48 29.402 26.86 29.402ZM33.7607 31L31.5342 22.8182H33.83L35.0977 28.3153H35.1723L36.4933 22.8182H38.7465L40.0889 28.2834H40.1581L41.4046 22.8182H43.695L41.4738 31H39.0715L37.6652 25.8544H37.564L36.1578 31H33.7607Z" fill="white"/>
</svg>
