<svg width="36" height="36" viewBox="0 0 36 36" fill="none" xmlns="http://www.w3.org/2000/svg">
<path fill-rule="evenodd" clip-rule="evenodd" d="M16.3563 0.635742L16.4286 0.635743C17.3399 0.635743 18.0786 1.37447 18.0786 2.28574C18.0786 3.19701 17.3399 3.93574 16.4286 3.93574C13.9163 3.93574 12.1307 3.93701 10.7351 4.05023C9.35753 4.16198 8.50813 4.37447 7.83971 4.71505C6.49435 5.40054 5.40054 6.49435 4.71505 7.83971C4.37375 8.50955 4.16171 9.3549 4.05016 10.7203C3.93703 12.1049 3.93574 13.8743 3.93574 16.3657V19.6343C3.93574 22.1258 3.93703 23.8951 4.05016 25.2798C4.16171 26.6452 4.37375 27.4905 4.71505 28.1603C5.40054 29.5057 6.49435 30.5995 7.83971 31.285C8.50813 31.6256 9.35753 31.8381 10.7351 31.9498C12.1307 32.063 13.9163 32.0643 16.4286 32.0643C17.3399 32.0643 18.0786 32.803 18.0786 33.7143C18.0786 34.6256 17.3399 35.3643 16.4286 35.3643H16.3562C13.9323 35.3643 12.013 35.3643 10.4682 35.239C8.88995 35.111 7.55555 34.8439 6.34154 34.2253C4.37525 33.2235 2.7766 31.6248 1.77472 29.6585C1.15688 28.4459 0.889345 27.118 0.761115 25.5485C0.63572 24.0137 0.63573 22.1096 0.635742 19.7069V16.2931C0.63573 13.8904 0.63572 11.9863 0.761115 10.4516C0.889345 8.8821 1.15688 7.55413 1.77472 6.34154C2.7766 4.37525 4.37525 2.7766 6.34154 1.77472C7.55555 1.15616 8.88995 0.889074 10.4682 0.761038C12.013 0.63572 13.9324 0.63573 16.3563 0.635742ZM26.2619 10.5476C26.9062 9.90322 27.951 9.90322 28.5953 10.5476L34.881 16.8333C35.5254 17.4777 35.5254 18.5224 34.881 19.1668L28.5953 25.4525C27.951 26.0968 26.9062 26.0968 26.2619 25.4525C25.6175 24.8081 25.6175 23.7634 26.2619 23.119L29.7309 19.65H14.8572C13.9459 19.65 13.2072 18.9113 13.2072 18C13.2072 17.0888 13.9459 16.35 14.8572 16.35H29.7309L26.2619 12.881C25.6175 12.2367 25.6175 11.192 26.2619 10.5476Z" fill="#868686"/>
</svg>
