<svg width="24" height="26" viewBox="0 0 24 26" fill="none" xmlns="http://www.w3.org/2000/svg">
<path d="M20.7429 14.3685L19.8775 15.2705L20.7429 14.3685ZM3.25675 14.3685L4.12212 15.2705L3.25675 14.3685ZM6.70437 8.82732C6.70437 7.15826 7.18375 5.75714 8.03046 4.79183C8.85646 3.85012 10.1339 3.20459 11.9998 3.20459V0.70459C9.5021 0.70459 7.50682 1.59757 6.15101 3.1433C4.81589 4.66543 4.20437 6.70067 4.20437 8.82732H6.70437ZM6.70437 10.9546V8.82732H4.20437V10.9546H6.70437ZM4.36346 17.8864C3.9056 17.8864 3.43164 17.4785 3.43164 16.8455H0.931641C0.931641 18.7429 2.41135 20.3864 4.36346 20.3864V17.8864ZM19.6362 17.8864H4.36346V20.3864H19.6362V17.8864ZM20.568 16.8455C20.568 17.4785 20.094 17.8864 19.6362 17.8864V20.3864C21.5883 20.3864 23.068 18.7429 23.068 16.8455H20.568ZM17.2953 8.82732V10.9546H19.7953V8.82732H17.2953ZM11.9998 3.20459C13.8657 3.20459 15.1432 3.85012 15.9692 4.79183C16.8159 5.75714 17.2953 7.15826 17.2953 8.82732H19.7953C19.7953 6.70067 19.1838 4.66543 17.8486 3.1433C16.4928 1.59757 14.4975 0.70459 11.9998 0.70459V3.20459ZM3.43164 16.8455C3.43164 16.2147 3.70442 15.6712 4.12212 15.2705L2.39138 13.4665C1.54836 14.2752 0.931641 15.4472 0.931641 16.8455H3.43164ZM19.8775 15.2705C20.2952 15.6712 20.568 16.2147 20.568 16.8455H23.068C23.068 15.4472 22.4513 14.2752 21.6083 13.4665L19.8775 15.2705ZM17.2953 10.9546C17.2953 12.0177 17.7737 12.8999 18.279 13.5703C18.7799 14.2348 19.4137 14.8256 19.8775 15.2705L21.6083 13.4665C21.0938 12.9729 20.6289 12.5345 20.2755 12.0656C19.9265 11.6026 19.7953 11.2471 19.7953 10.9546H17.2953ZM4.20437 10.9546C4.20437 11.2471 4.07313 11.6026 3.72416 12.0656C3.37075 12.5345 2.90581 12.9729 2.39138 13.4665L4.12212 15.2705C4.5859 14.8256 5.21978 14.2348 5.72062 13.5703C6.2259 12.8999 6.70437 12.0177 6.70437 10.9546H4.20437Z" fill="#868686"/>
<path d="M15.4922 23.5146C15.8767 22.9412 15.7236 22.1647 15.1502 21.7802C14.5769 21.3957 13.8004 21.5488 13.4158 22.1221L15.4922 23.5146ZM10.5831 22.1221C10.1986 21.5488 9.42207 21.3957 8.84871 21.7802C8.27535 22.1647 8.12225 22.9412 8.50676 23.5146L10.5831 22.1221ZM13.4158 22.1221C13.2962 22.3005 13.1099 22.4695 12.8583 22.5949L13.9732 24.8325C14.5832 24.5286 15.1129 24.0801 15.4922 23.5146L13.4158 22.1221ZM12.8583 22.5949C12.6065 22.7203 12.3097 22.7913 11.9995 22.7913V25.2913C12.6835 25.2913 13.3635 25.1363 13.9732 24.8325L12.8583 22.5949ZM11.9995 22.7913C11.6892 22.7913 11.3924 22.7203 11.1406 22.5949L10.0257 24.8325C10.6355 25.1363 11.3155 25.2913 11.9995 25.2913V22.7913ZM11.1406 22.5949C10.8891 22.4695 10.7027 22.3005 10.5831 22.1221L8.50676 23.5146C8.88603 24.0801 9.41572 24.5286 10.0257 24.8325L11.1406 22.5949Z" fill="#868686"/>
</svg>
