<svg width="24" height="24" viewBox="0 0 24 24" fill="none" xmlns="http://www.w3.org/2000/svg">
<path d="M9.40932 2.09961L14.9229 2.10129C16.8668 2.12167 17.8485 2.32955 18.8662 2.87381C19.8378 3.39346 20.6058 4.1614 21.1254 5.13306C21.6999 6.20728 21.8996 7.24141 21.8996 9.40932V14.5899C21.8996 16.7578 21.6999 17.7919 21.1254 18.8662C20.6058 19.8378 19.8378 20.6058 18.8662 21.1254C17.7919 21.6999 16.7578 21.8996 14.5899 21.8996H9.40932C7.24141 21.8996 6.20728 21.6999 5.13306 21.1254C4.1614 20.6058 3.39346 19.8378 2.87381 18.8662C2.29931 17.7919 2.09961 16.7578 2.09961 14.5899L2.10129 9.07627C2.12167 7.13244 2.32955 6.15074 2.87381 5.13306C3.39346 4.1614 4.1614 3.39346 5.13306 2.87381C6.20728 2.29931 7.24141 2.09961 9.40932 2.09961ZM15.0891 13.2912L11.3612 17.8215C11.0457 18.2049 10.4794 18.2603 10.0955 17.9454L8.05365 16.2705L5.24778 19.0261C5.46725 19.223 5.71225 19.3939 5.98193 19.5381C6.67786 19.9103 7.35427 20.066 8.84716 20.0946L9.40932 20.0996H14.5899L15.1521 20.0946C16.4693 20.0694 17.1509 19.9452 17.7711 19.6607L18.0173 19.5381C18.6753 19.1863 19.1863 18.6753 19.5381 18.0173C19.638 17.8307 19.7222 17.6454 19.7926 17.4455L15.0891 13.2912ZM14.5899 3.89961H9.40932L8.84716 3.90459C7.5299 3.92987 6.84832 4.05402 6.22811 4.33856L5.98193 4.46107C5.32396 4.81296 4.81296 5.32396 4.46107 5.98193L4.33856 6.22811C4.01608 6.93101 3.89961 7.71275 3.89961 9.40932V14.5899L3.90459 15.1521C3.92632 16.2846 4.02114 16.9472 4.22813 17.505L7.36897 14.42C7.69695 14.0979 8.21498 14.0747 8.57041 14.3663L10.5423 15.9838L14.2915 11.4277C14.6151 11.0344 15.2005 10.9878 15.5823 11.3251L20.091 15.3101C20.0924 15.2584 20.0936 15.2058 20.0946 15.1521L20.0996 14.5899V9.40932L20.0946 8.84716C20.0694 7.5299 19.9452 6.84832 19.6607 6.22811L19.5381 5.98193C19.1863 5.32396 18.6753 4.81296 18.0173 4.46107C17.3214 4.08889 16.645 3.93324 15.1521 3.90459L14.5899 3.89961ZM8.49961 6.99961C9.32804 6.99961 9.99961 7.67118 9.99961 8.49961C9.99961 9.32804 9.32804 9.99961 8.49961 9.99961C7.67118 9.99961 6.99961 9.32804 6.99961 8.49961C6.99961 7.67118 7.67118 6.99961 8.49961 6.99961Z" fill="#556BF4"/>
</svg>
