<svg width="32" height="32" viewBox="0 0 32 32" fill="none" xmlns="http://www.w3.org/2000/svg">
<path fill-rule="evenodd" clip-rule="evenodd" d="M7.92893 7.92893C9.73721 6.12066 12.2389 5 15 5C17.7611 5 20.2628 6.12066 22.0711 7.92893C23.8793 9.73721 25 12.2389 25 15C25 17.7611 23.8793 20.2628 22.0711 22.0711C20.2628 23.8793 17.7611 25 15 25C12.2389 25 9.73721 23.8793 7.92893 22.0711C6.12066 20.2628 5 17.7611 5 15C5 12.2389 6.12066 9.73721 7.92893 7.92893ZM15 7.5C12.9286 7.5 11.0553 8.3381 9.6967 9.6967C8.3381 11.0553 7.5 12.9286 7.5 15C7.5 17.0714 8.3381 18.9447 9.6967 20.3033C11.0553 21.6619 12.9286 22.5 15 22.5C17.0714 22.5 18.9447 21.6619 20.3033 20.3033C21.6619 18.9447 22.5 17.0714 22.5 15C22.5 12.9286 21.6619 11.0553 20.3033 9.6967C18.9447 8.3381 17.0714 7.5 15 7.5Z" fill="#AEAEAE"/>
<path fill-rule="evenodd" clip-rule="evenodd" d="M21.6243 21.3565C22.1124 20.8684 22.9039 20.8684 23.392 21.3565L28.1435 26.108C28.6316 26.5961 28.6316 27.3876 28.1435 27.8757C27.6553 28.3639 26.8639 28.3639 26.3757 27.8757L21.6243 23.1243C21.1361 22.6361 21.1361 21.8447 21.6243 21.3565Z" fill="#AEAEAE"/>
</svg>
