<svg width="20" height="20" viewBox="0 0 20 20" fill="none" xmlns="http://www.w3.org/2000/svg">
<path d="M1.41071 5.33548L4.14454 2.65685C4.35809 2.44768 4.7045 2.44775 4.91792 2.65685L7.65165 5.33548C7.99584 5.67265 7.75074 6.25001 7.26494 6.25001H5.625V16.9643C5.625 17.2602 5.38017 17.5 5.07812 17.5H3.98437C3.68233 17.5 3.4375 17.2602 3.4375 16.9643V6.25001H1.79742C1.31067 6.25001 1.06724 5.67198 1.41071 5.33548ZM9.45312 4.64287H18.2031C18.5052 4.64287 18.75 4.40304 18.75 4.10716V3.03573C18.75 2.73985 18.5052 2.50002 18.2031 2.50002H9.45312C9.15108 2.50002 8.90625 2.73985 8.90625 3.03573V4.10716C8.90625 4.40304 9.15108 4.64287 9.45312 4.64287ZM8.90625 8.39287V7.32144C8.90625 7.02556 9.15108 6.78573 9.45312 6.78573H16.0156C16.3177 6.78573 16.5625 7.02556 16.5625 7.32144V8.39287C16.5625 8.68875 16.3177 8.92858 16.0156 8.92858H9.45312C9.15108 8.92858 8.90625 8.68875 8.90625 8.39287ZM8.90625 16.9643V15.8929C8.90625 15.597 9.15108 15.3571 9.45312 15.3571H11.6406C11.9427 15.3571 12.1875 15.597 12.1875 15.8929V16.9643C12.1875 17.2602 11.9427 17.5 11.6406 17.5H9.45312C9.15108 17.5 8.90625 17.2602 8.90625 16.9643ZM8.90625 12.6786V11.6071C8.90625 11.3113 9.15108 11.0714 9.45312 11.0714H13.8281C14.1302 11.0714 14.375 11.3113 14.375 11.6071V12.6786C14.375 12.9745 14.1302 13.2143 13.8281 13.2143H9.45312C9.15108 13.2143 8.90625 12.9745 8.90625 12.6786Z" fill="#868686"/>
</svg>
