<svg width="24" height="24" viewBox="0 0 24 24" fill="none" xmlns="http://www.w3.org/2000/svg">
<path fill-rule="evenodd" clip-rule="evenodd" d="M12.0158 4.9001C7.4166 4.9001 3.93162 8.07216 3.93162 11.7069C3.93162 13.0129 4.36923 14.2387 5.14169 15.2781C5.25705 15.4333 5.31934 15.6215 5.31934 15.8149C5.31934 17.1946 4.77963 18.4987 4.22038 19.7355C5.93378 19.5413 7.05532 18.9849 7.73306 18.188C7.97889 17.899 8.37958 17.7952 8.73482 17.9285C9.73479 18.3037 10.8443 18.5137 12.0158 18.5137C16.6151 18.5137 20.1 15.3416 20.1 11.7069C20.1 8.07216 16.6151 4.9001 12.0158 4.9001ZM2.13162 11.7069C2.13162 6.82893 6.69139 3.1001 12.0158 3.1001C17.3403 3.1001 21.9 6.82893 21.9 11.7069C21.9 16.5848 17.3403 20.3137 12.0158 20.3137C10.8433 20.3137 9.71582 20.136 8.66833 19.8082C7.42025 20.9612 5.61596 21.5129 3.4202 21.5991C2.49327 21.6355 1.82177 20.6718 2.21117 19.8067C2.7397 18.6243 3.40839 17.4039 3.5087 16.0879C2.63785 14.8158 2.13162 13.3153 2.13162 11.7069Z" fill="#556BF4"/>
</svg>
