<svg width="20" height="20" viewBox="0 0 20 20" fill="none" xmlns="http://www.w3.org/2000/svg">
<path d="M12.9637 7.26324C13.3152 6.91177 13.885 6.91177 14.2365 7.26324C14.588 7.61471 14.588 8.18456 14.2365 8.53603L9.63649 13.136C9.28502 13.4875 8.71517 13.4875 8.3637 13.136L5.7637 10.536C5.41222 10.1846 5.41222 9.61471 5.7637 9.26324C6.11517 8.91177 6.68502 8.91177 7.03649 9.26324L9.00009 11.2268L12.9637 7.26324Z" fill="#556BF4"/>
<path fill-rule="evenodd" clip-rule="evenodd" d="M10.0001 0.0996094C15.4672 0.0996094 19.9001 4.53249 19.9001 9.99961C19.9001 15.4667 15.4672 19.8996 10.0001 19.8996C4.53297 19.8996 0.100098 15.4667 0.100098 9.99961C0.100098 4.53249 4.53298 0.0996094 10.0001 0.0996094ZM10.0001 1.89961C5.52609 1.89961 1.9001 5.5256 1.9001 9.99961C1.9001 14.4736 5.52609 18.0996 10.0001 18.0996C14.4741 18.0996 18.1001 14.4736 18.1001 9.99961C18.1001 5.52561 14.4741 1.89961 10.0001 1.89961Z" fill="#556BF4"/>
</svg>
