<svg width="36" height="36" viewBox="0 0 36 36" fill="none" xmlns="http://www.w3.org/2000/svg">
<circle cx="17.9989" cy="11.8642" r="4.90909" stroke="#868686" stroke-width="2.5"/>
<path d="M9.39778 24.3533L8.33106 23.7017H8.33106L9.39778 24.3533ZM26.5998 24.3533L27.6665 23.7017V23.7017L26.5998 24.3533ZM13.0897 30.296H22.9079V27.796H13.0897V30.296ZM10.4645 25.0049C11.5674 23.1995 13.7799 21.7051 17.9988 21.7051V19.2051C13.129 19.2051 9.9921 20.9826 8.33106 23.7017L10.4645 25.0049ZM17.9988 21.7051C22.2177 21.7051 24.4302 23.1995 25.5331 25.0049L27.6665 23.7017C26.0055 20.9825 22.8686 19.2051 17.9988 19.2051V21.7051ZM13.0897 27.796C12.0755 27.796 11.1534 27.3433 10.6445 26.7519C10.1791 26.2111 10.0849 25.6264 10.4645 25.0049L8.33106 23.7017C7.29734 25.3939 7.69346 27.1555 8.74959 28.3827C9.76215 29.5592 11.3927 30.296 13.0897 30.296V27.796ZM22.9079 30.296C24.6049 30.296 26.2354 29.5592 27.248 28.3827C28.3041 27.1555 28.7003 25.3939 27.6665 23.7017L25.5331 25.0049C25.9127 25.6264 25.8185 26.2111 25.3531 26.7519C24.8442 27.3433 23.922 27.796 22.9079 27.796V30.296Z" fill="#868686"/>
</svg>
