<svg width="24" height="28" viewBox="0 0 24 28" fill="none" xmlns="http://www.w3.org/2000/svg">
<path d="M19.818 14.7869C19.8047 12.5225 20.8307 10.8158 22.9025 9.55742C21.7437 7.89727 19.9906 6.98418 17.6797 6.8082C15.4916 6.63555 13.0977 8.0832 12.2211 8.0832C11.2947 8.0832 9.17637 6.86797 7.50957 6.86797C4.06973 6.92109 0.414062 9.61055 0.414062 15.0824C0.414062 16.6994 0.70957 18.3695 1.30059 20.0895C2.09082 22.3539 4.93965 27.9021 7.91133 27.8125C9.46523 27.776 10.5643 26.7102 12.5863 26.7102C14.5486 26.7102 15.5646 27.8125 17.2979 27.8125C20.2961 27.7693 22.8727 22.7258 23.623 20.4547C19.6021 18.5588 19.818 14.9031 19.818 14.7869ZM16.3283 4.65996C18.0117 2.66113 17.859 0.841602 17.8092 0.1875C16.3217 0.273828 14.6018 1.2002 13.6223 2.33906C12.5432 3.56094 11.909 5.07168 12.0451 6.775C13.6521 6.89785 15.1197 6.07109 16.3283 4.65996Z" fill="#141414"/>
</svg>
