<svg width="32" height="32" viewBox="0 0 32 32" fill="none" xmlns="http://www.w3.org/2000/svg">
<path d="M29.0753 13.389H28.0013V13.3337H16.0013V18.667H23.5366C22.4373 21.7717 19.4833 24.0003 16.0013 24.0003C11.5833 24.0003 8.0013 20.4183 8.0013 16.0003C8.0013 11.5823 11.5833 8.00032 16.0013 8.00032C18.0406 8.00032 19.896 8.76966 21.3086 10.0263L25.08 6.25499C22.6986 4.03566 19.5133 2.66699 16.0013 2.66699C8.63797 2.66699 2.66797 8.63699 2.66797 16.0003C2.66797 23.3637 8.63797 29.3337 16.0013 29.3337C23.3646 29.3337 29.3346 23.3637 29.3346 16.0003C29.3346 15.1063 29.2426 14.2337 29.0753 13.389Z" fill="#FFC107"/>
<path d="M4.20312 9.79432L8.58379 13.007C9.76912 10.0723 12.6398 8.00032 15.9991 8.00032C18.0385 8.00032 19.8938 8.76966 21.3065 10.0263L25.0778 6.25499C22.6965 4.03566 19.5111 2.66699 15.9991 2.66699C10.8778 2.66699 6.43646 5.55833 4.20312 9.79432Z" fill="#FF3D00"/>
<path d="M15.9989 29.3328C19.4429 29.3328 22.5722 28.0148 24.9382 25.8715L20.8116 22.3795C19.4279 23.4317 17.7372 24.0009 15.9989 23.9995C12.5309 23.9995 9.58624 21.7881 8.47691 18.7021L4.12891 22.0521C6.33557 26.3701 10.8169 29.3328 15.9989 29.3328Z" fill="#4CAF50"/>
<path d="M29.074 13.3883H28V13.333H16V18.6663H23.5353C23.0095 20.144 22.0622 21.4351 20.8107 22.3803L20.8127 22.379L24.9393 25.871C24.6473 26.1363 29.3333 22.6663 29.3333 15.9997C29.3333 15.1057 29.2413 14.233 29.074 13.3883Z" fill="#1976D2"/>
</svg>
