<svg width="24" height="24" viewBox="0 0 24 24" fill="none" xmlns="http://www.w3.org/2000/svg">
<path d="M20.5166 12C20.5166 16.5563 16.823 20.25 12.2666 20.25V21.75C17.6514 21.75 22.0166 17.3848 22.0166 12H20.5166ZM12.2666 20.25C7.71025 20.25 4.0166 16.5563 4.0166 12H2.5166C2.5166 17.3848 6.88182 21.75 12.2666 21.75V20.25ZM4.0166 12C4.0166 7.44365 7.71025 3.75 12.2666 3.75V2.25C6.88182 2.25 2.5166 6.61522 2.5166 12H4.0166ZM12.2666 3.75C16.823 3.75 20.5166 7.44365 20.5166 12H22.0166C22.0166 6.61522 17.6514 2.25 12.2666 2.25V3.75Z" fill="#AEAEAE"/>
<path d="M11.5166 16C11.5166 16.4142 11.8524 16.75 12.2666 16.75C12.6808 16.75 13.0166 16.4142 13.0166 16H11.5166ZM13.0166 12C13.0166 11.5858 12.6808 11.25 12.2666 11.25C11.8524 11.25 11.5166 11.5858 11.5166 12H13.0166ZM13.0166 16V12H11.5166V16H13.0166Z" fill="#AEAEAE"/>
<path d="M12.2666 7.25C11.8524 7.25 11.5166 7.58579 11.5166 8C11.5166 8.41421 11.8524 8.75 12.2666 8.75V7.25ZM12.2766 8.75C12.6908 8.75 13.0266 8.41421 13.0266 8C13.0266 7.58579 12.6908 7.25 12.2766 7.25V8.75ZM12.2666 8.75H12.2766V7.25H12.2666V8.75Z" fill="#AEAEAE"/>
</svg>