<svg width="24" height="24" viewBox="0 0 24 24" fill="none" xmlns="http://www.w3.org/2000/svg">
<path d="M4.43871 10.8726L4.83565 10.2363L4.43871 10.8726ZM4.89685 7.61465L4.69081 6.8935L4.89685 7.61465ZM10.2004 14.947L9.56402 15.3439L10.2004 14.947ZM8.92347 13.6701L8.52654 14.3064L8.92347 13.6701ZM16.2558 18.9736L15.5346 18.7675L16.2558 18.9736ZM12.9978 19.4317L12.3614 19.8287L12.9978 19.4317ZM20.2554 4.97489L20.9766 5.18093L20.2554 4.97489ZM18.8955 3.61502L19.1016 4.33616L18.8955 3.61502ZM19.5343 4.76885L15.5346 18.7675L16.9769 19.1796L20.9766 5.18093L19.5343 4.76885ZM13.6341 19.0348L10.8367 14.55L9.56402 15.3439L12.3614 19.8287L13.6341 19.0348ZM9.3204 13.0337L4.83565 10.2363L4.04178 11.509L8.52654 14.3064L9.3204 13.0337ZM5.10289 8.33579L19.1016 4.33616L18.6895 2.89388L4.69081 6.8935L5.10289 8.33579ZM4.83565 10.2363C4.0635 9.75465 4.22787 8.5858 5.10289 8.33579L4.69081 6.8935C2.56575 7.50067 2.16658 10.3393 4.04178 11.509L4.83565 10.2363ZM10.8367 14.55C10.4535 13.9356 9.93482 13.417 9.3204 13.0337L8.52654 14.3064C8.94693 14.5686 9.3018 14.9235 9.56402 15.3439L10.8367 14.55ZM15.5346 18.7675C15.2846 19.6426 14.1158 19.8069 13.6341 19.0348L12.3614 19.8287C13.5311 21.7039 16.3698 21.3047 16.9769 19.1796L15.5346 18.7675ZM20.9766 5.18093C21.3753 3.78538 20.0851 2.49515 18.6895 2.89388L19.1016 4.33616C19.3656 4.26073 19.6097 4.50483 19.5343 4.76885L20.9766 5.18093Z" fill="#AEAEAE"/>
<path d="M9.66254 13.1474C9.36965 13.4402 9.36965 13.9151 9.66254 14.208C9.95543 14.5009 10.4303 14.5009 10.7232 14.208L9.66254 13.1474ZM14.2587 10.6725C14.5516 10.3796 14.5516 9.90471 14.2587 9.61182C13.9658 9.31893 13.491 9.31893 13.1981 9.61182L14.2587 10.6725ZM10.7232 14.208L14.2587 10.6725L13.1981 9.61182L9.66254 13.1474L10.7232 14.208Z" fill="#AEAEAE"/>
</svg>
